<svg xmlns="http://www.w3.org/2000/svg" width="80" height="81" fill="none"><rect width="72.332" height="72.332" x="3.741" y="3.961" stroke="#fff" stroke-width="7.483" rx="36.166"/><path fill="#fff" d="M24.736 62.196V18.661h15.518q5.06 0 8.397 1.743 3.359 1.743 5.017 4.825 1.658 3.06 1.658 7.08 0 3.995-1.68 7.035-1.657 3.02-5.016 4.698-3.337 1.68-8.397 1.68H28.478v-5.655h11.16q3.189 0 5.187-.914 2.019-.914 2.954-2.657.936-1.743.936-4.188 0-2.466-.957-4.273-.934-1.806-2.955-2.763-1.998-.978-5.25-.978h-8.248v37.902zm21.492-19.642 10.756 19.642h-7.483L38.958 42.554z"/></svg>