<svg xmlns="http://www.w3.org/2000/svg" width="121" height="48" fill="none"><path fill="#0A0A0A" d="M6.926 25.867V38.5H2.784V17.223H6.76v3.463h.263a6.1 6.1 0 0 1 2.3-2.715q1.58-1.025 3.975-1.025 2.175 0 3.81.914 1.634.9 2.535 2.687.9 1.788.9 4.42V38.5h-4.142V25.465q0-2.313-1.205-3.616-1.205-1.316-3.31-1.316-1.441 0-2.563.624-1.11.623-1.76 1.828-.637 1.191-.637 2.882m27.525 13.062q-2.993 0-5.222-1.371-2.231-1.371-3.463-3.837t-1.233-5.763q0-3.31 1.232-5.79 1.233-2.48 3.464-3.851t5.222-1.371q2.993 0 5.222 1.371 2.231 1.371 3.463 3.851t1.233 5.79q0 3.298-1.233 5.763-1.233 2.466-3.463 3.837t-5.222 1.371m.014-3.477q1.94 0 3.214-1.025t1.883-2.729q.624-1.703.624-3.753 0-2.037-.623-3.74-.61-1.719-1.884-2.757-1.275-1.04-3.214-1.04-1.953 0-3.242 1.04-1.275 1.038-1.897 2.756-.61 1.704-.61 3.74 0 2.05.61 3.755.623 1.703 1.897 2.728 1.29 1.026 3.242 1.026ZM48.383 38.5V17.223h4.003v3.38h.222q.582-1.718 2.05-2.702 1.483-.997 3.352-.997a18 18 0 0 1 1.76.097v3.962a7 7 0 0 0-.887-.152 8.5 8.5 0 0 0-1.274-.098q-1.47 0-2.618.624a4.63 4.63 0 0 0-1.801 1.704q-.666 1.08-.665 2.465V38.5zm22.77.43q-3.145 0-5.416-1.344-2.26-1.358-3.491-3.81-1.22-2.466-1.22-5.776 0-3.27 1.22-5.763 1.233-2.493 3.435-3.892 2.217-1.4 5.181-1.4 1.8.001 3.49.596a8.5 8.5 0 0 1 3.034 1.87q1.344 1.275 2.12 3.311.776 2.023.776 4.918v1.468H63.368v-3.103h12.855q0-1.635-.665-2.895a5.03 5.03 0 0 0-1.87-2.009q-1.191-.734-2.798-.734-1.746 0-3.048.859a5.77 5.77 0 0 0-1.995 2.216 6.4 6.4 0 0 0-.692 2.951v2.424q0 2.133.748 3.63.761 1.496 2.12 2.285 1.356.776 3.172.776 1.177 0 2.147-.333a4.6 4.6 0 0 0 1.676-1.025 4.46 4.46 0 0 0 1.08-1.676l3.92.707a7.1 7.1 0 0 1-1.69 3.033q-1.204 1.29-3.033 2.009-1.814.706-4.142.706Zm17.257-28.8V38.5h-4.142V10.13zm9.104 0V38.5h-4.142V10.13z"/><rect width="17.676" height="17.676" x="101.914" y="1.414" stroke="#0A0A0A" stroke-width="1.829" rx="8.838"/><path fill="#0A0A0A" d="M107.044 15.938V5.299h3.792q1.236 0 2.052.426.82.426 1.226 1.18.405.747.405 1.73 0 .976-.41 1.719-.406.737-1.226 1.148-.816.41-2.052.41h-2.873V10.53h2.727q.78 0 1.268-.223a1.48 1.48 0 0 0 .722-.65q.228-.425.228-1.023 0-.602-.233-1.044a1.5 1.5 0 0 0-.722-.675q-.489-.24-1.284-.24h-2.015v9.263zm5.252-4.8 2.628 4.8h-1.828l-2.577-4.8z"/></svg>