<svg width="511" height="77" viewBox="0 0 511 77" fill="none" xmlns="http://www.w3.org/2000/svg">
<path d="M427.865 74.8203V1.43359H442.953L467.381 42.3864C468.066 43.5497 468.818 44.9866 469.639 46.6973C470.529 48.4079 471.213 49.8448 471.692 51.0081L472.513 52.6503H472.718C472.445 47.5868 472.308 43.3444 472.308 39.9231V1.43359H486.985V74.8203H472.616L447.572 34.278C446.888 33.1147 446.101 31.712 445.211 30.0698C444.322 28.3591 443.638 26.9222 443.159 25.759L442.337 24.1167H442.132C442.406 29.2487 442.543 33.5253 442.543 36.9466V74.8203H427.865Z" fill="#0E0E0E"/>
<path d="M357.95 74.8203L383.507 1.43359H398.903L424.768 74.8203H409.269L404.343 59.2192H377.862L373.038 74.8203H357.95ZM387.921 26.6827L381.352 47.8263H400.75L394.182 26.6827L391.205 15.3925H391C389.768 20.3191 388.742 24.0825 387.921 26.6827Z" fill="#0E0E0E"/>
<path d="M294.178 74.8203L272.829 1.43359H288.019L297.565 37.8703L300.746 53.882H300.952C302.183 47.7921 303.312 42.5917 304.339 38.2809L312.345 1.43359H326.714L334.72 38.1782L338.107 53.882H338.312C339.749 47.3815 340.947 42.0101 341.905 37.7677L351.142 1.43359H365.819L344.881 74.8203H331.025L322.095 35.5096L319.529 22.4745H319.324C318.571 27.6065 317.784 31.9515 316.963 35.5096L307.931 74.8203H294.178Z" fill="#0E0E0E"/>
<path d="M215.187 74.8203V1.43359H243.823C253.539 1.43359 261.34 4.95752 267.225 12.0054C273.109 18.9848 276.052 27.9486 276.052 38.8967C276.052 51.5555 272.151 61.1693 264.351 67.7382C258.671 72.4596 251.418 74.8203 242.591 74.8203H215.187ZM230.069 61.9904H241.565C248.339 61.9904 253.266 60.0403 256.345 56.14C259.424 52.1713 260.964 46.4236 260.964 38.8967C260.964 31.3699 259.321 25.3826 256.037 20.9349C252.821 16.4188 248.134 14.1608 241.976 14.1608H230.069V61.9904Z" fill="#0E0E0E"/>
<path d="M154.718 74.8203V1.43359H208.706V13.9555H169.601V30.3777H203.882V42.5917H169.601V62.401H209.014V74.8203H154.718Z" fill="#0E0E0E"/>
<path d="M90.9419 74.8203V1.43359H124.607C131.655 1.43359 137.335 3.3153 141.645 7.07872C146.025 10.8421 148.214 15.7688 148.214 21.8587C148.214 31.233 143.732 37.1519 134.769 39.6152V39.9231C138.258 40.9495 140.859 42.5917 142.569 44.8498C144.348 47.0394 145.477 50.3238 145.956 54.7031C146.093 56.3453 146.23 58.2954 146.367 60.5535C146.572 62.7431 146.709 64.488 146.777 65.7881C146.914 67.0881 147.051 68.3882 147.188 69.6883C147.393 70.9884 147.633 72.0148 147.906 72.7675C148.249 73.4517 148.659 73.8965 149.138 74.1018V74.8203H134.871C134.598 74.6834 134.358 74.4439 134.153 74.1018C133.948 73.6912 133.776 73.1438 133.64 72.4596C133.503 71.7753 133.366 71.0911 133.229 70.4068C133.161 69.6541 133.058 68.7304 132.921 67.6355C132.853 66.4723 132.784 65.4801 132.716 64.659C132.647 63.7695 132.545 62.6405 132.408 61.272C132.34 59.835 132.271 58.706 132.203 57.8849C131.587 49.5369 126.797 45.363 117.833 45.363H105.825V74.8203H90.9419ZM105.825 13.4423V33.8674H121.631C125.531 33.8674 128.508 32.9437 130.56 31.0962C132.682 29.2487 133.742 26.8196 133.742 23.8088C133.742 20.7297 132.75 18.2321 130.766 16.3162C128.781 14.4003 125.873 13.4423 122.041 13.4423H105.825Z" fill="#0E0E0E"/>
<path d="M69.7186 74.8221V59.9395H84.7039V74.8221H69.7186Z" fill="#0E0E0E"/>
<path d="M61.07 65.7914C54.638 72.9077 46.0848 76.4658 35.4103 76.4658C24.7359 76.4658 16.1485 72.9077 9.64804 65.7914C3.21601 58.6067 0 49.4376 0 38.2842C0 27.1308 3.21601 17.9618 9.64804 10.7771C16.1485 3.59235 24.7359 0 35.4103 0C46.0848 0 54.638 3.59235 61.07 10.7771C67.502 17.9618 70.7181 27.1308 70.7181 38.2842C70.7181 49.4376 67.502 58.6067 61.07 65.7914ZM20.4251 56.9645C23.9832 61.8227 29.0125 64.2518 35.513 64.2518C42.0134 64.2518 46.9743 61.8569 50.3956 57.0671C53.8169 52.2089 55.5275 45.9479 55.5275 38.2842C55.5275 30.6205 53.8169 24.3596 50.3956 19.5013C46.9743 14.6431 42.0134 12.214 35.513 12.214C29.0125 12.214 23.9832 14.6431 20.4251 19.5013C16.9354 24.3596 15.1905 30.6205 15.1905 38.2842C15.1905 45.8795 16.9354 52.1062 20.4251 56.9645Z" fill="#0E0E0E"/>
<path fill-rule="evenodd" clip-rule="evenodd" d="M501.948 18.7666C500.772 18.7666 499.671 18.547 498.644 18.1079C497.617 17.6687 496.713 17.0595 495.934 16.2804C495.155 15.5012 494.546 14.5981 494.107 13.571C493.668 12.5439 493.448 11.4424 493.448 10.2666C493.448 9.09077 493.668 7.98931 494.107 6.96223C494.546 5.93514 495.155 5.03202 495.934 4.25285C496.713 3.47369 497.617 2.86452 498.644 2.42535C499.671 1.98619 500.772 1.7666 501.948 1.7666C503.124 1.7666 504.225 1.98619 505.252 2.42535C506.279 2.86452 507.183 3.47369 507.962 4.25285C508.741 5.03202 509.35 5.93514 509.789 6.96223C510.228 7.98931 510.448 9.09077 510.448 10.2666C510.448 11.4424 510.228 12.5439 509.789 13.571C509.35 14.5981 508.741 15.5012 507.962 16.2804C507.183 17.0595 506.279 17.6687 505.252 18.1079C504.225 18.547 503.124 18.7666 501.948 18.7666ZM501.948 16.7266C503.138 16.7266 504.222 16.4362 505.199 15.8554C506.177 15.2745 506.956 14.4954 507.537 13.5179C508.118 12.5404 508.408 11.4566 508.408 10.2666C508.408 9.0766 508.118 7.99285 507.537 7.01535C506.956 6.03785 506.177 5.25868 505.199 4.67785C504.222 4.09702 503.138 3.8066 501.948 3.8066C500.758 3.8066 499.674 4.09702 498.697 4.67785C497.719 5.25868 496.94 6.03785 496.359 7.01535C495.778 7.99285 495.488 9.0766 495.488 10.2666C495.488 11.4566 495.778 12.5404 496.359 13.5179C496.94 14.4954 497.719 15.2745 498.697 15.8554C499.674 16.4362 500.758 16.7266 501.948 16.7266Z" fill="#0E0E0E"/>
<path fill-rule="evenodd" clip-rule="evenodd" d="M504.934 10.2241C504.689 10.5748 504.398 10.8508 504.06 11.052L505.667 14.0916H503.775L502.402 11.4354H500.694V14.0916H498.973V6.25035H502.947C503.265 6.25035 503.613 6.34243 503.988 6.5266C504.363 6.70369 504.682 6.97994 504.944 7.35535C505.213 7.72369 505.348 8.19119 505.348 8.75785C505.348 9.3316 505.21 9.82035 504.934 10.2241ZM503.042 9.80973C502.773 10.0435 502.522 10.1604 502.288 10.1604H500.694V7.52535H502.33C502.536 7.52535 502.773 7.61035 503.042 7.78035C503.319 7.95035 503.457 8.27619 503.457 8.75785C503.457 9.22535 503.319 9.57598 503.042 9.80973Z" fill="#0E0E0E"/>
</svg>
