<svg xmlns="http://www.w3.org/2000/svg" width="250" height="45" fill="none"><g clip-path="url(#a)"><path fill="#fff" fill-rule="evenodd" d="M47 18.17v16.18h5.056a4.047 4.047 0 0 1 4.046 4.045v5.056h12.135l15.169-15.17v-16.18H78.35a4.05 4.05 0 0 1-4.046-4.045V3H62.17zm17.192 15.168h-7.08V22.214l9.102-9.101h7.08v11.124z" clip-rule="evenodd"/></g><path fill="#fff" d="M101.66 34.57q-1.891 0-3.438-.929a7.1 7.1 0 0 1-2.407-2.544q-.894-1.582-.894-3.542l.034-10.727q0-1.891.86-3.439a6.84 6.84 0 0 1 2.407-2.51q1.547-.962 3.438-.962t3.404.928a6.84 6.84 0 0 1 2.407 2.51q.894 1.547.894 3.473v1.581q0 .138-.138.138h-3.851q-.137 0-.137-.138v-1.581a2.8 2.8 0 0 0-.757-1.96 2.32 2.32 0 0 0-1.822-.825q-1.237 0-1.891.86-.654.825-.653 1.925v10.727q0 1.272.722 2.063.757.79 1.822.791 1.1 0 1.822-.86.757-.894.757-1.994v-1.581q0-.138.137-.138h3.886q.137 0 .137.138v1.581q0 1.96-.928 3.542a7.1 7.1 0 0 1-2.407 2.544q-1.513.928-3.404.928Zm15.614 0a6.5 6.5 0 0 1-3.404-.929 7.5 7.5 0 0 1-2.441-2.51 6.74 6.74 0 0 1-.928-3.473l.034-10.9q0-1.89.894-3.438a7.1 7.1 0 0 1 2.476-2.475 6.43 6.43 0 0 1 3.369-.928q1.857 0 3.37.928a6.9 6.9 0 0 1 2.407 2.475q.928 1.548.928 3.439l.035 10.9q0 1.89-.929 3.472a7.1 7.1 0 0 1-2.441 2.51q-1.513.928-3.37.928Zm0-4.161q1.032 0 1.788-.825.791-.86.791-1.926l-.034-10.9q0-1.134-.722-1.925-.722-.79-1.823-.79-1.065 0-1.822.79-.756.757-.756 1.926v10.9q0 1.135.756 1.96.757.79 1.822.79m9.491 3.817q-.137 0-.137-.172l.069-23.622q0-.137.137-.137h6.946a6.5 6.5 0 0 1 3.403.928 6.74 6.74 0 0 1 2.51 2.441q.929 1.513.929 3.439 0 1.272-.378 2.303a7.6 7.6 0 0 1-.894 1.72q-.516.687-.929 1.031 1.857 2.063 1.857 4.848l.034 7.049q0 .171-.172.172h-3.885q-.138 0-.137-.104v-7.117q0-1.238-.894-2.132a2.8 2.8 0 0 0-2.132-.928h-2.269l-.035 10.109q0 .171-.137.172zm4.058-14.407h2.957q1.065 0 1.891-.79a2.57 2.57 0 0 0 .825-1.926q0-1.1-.825-1.891a2.58 2.58 0 0 0-1.891-.791h-2.957zm12.53 14.407q-.138 0-.138-.172l.034-23.622q0-.137.138-.137h11.037q.138 0 .138.172v3.85q0 .138-.138.138h-7.049v5.364h7.049q.138 0 .138.137l.034 3.886q0 .137-.138.137h-7.083v6.017h7.083q.138 0 .138.172v3.92q0 .138-.138.138zm14.438 0q-.138 0-.138-.172l.035-23.622q0-.137.172-.137h3.816q.172 0 .172.137l-.034 9.353h5.157v-9.353q0-.137.138-.137h3.816q.172 0 .172.137l.069 23.622q0 .171-.172.172h-3.851q-.172 0-.172-.172V23.945h-5.157v10.109q0 .171-.138.172zm22.508.343a6.43 6.43 0 0 1-3.37-.928 7.3 7.3 0 0 1-2.476-2.544q-.894-1.582-.894-3.473l.069-17.192q0-.137.138-.137h3.851q.137 0 .137.137v17.192q0 1.17.722 1.994.756.79 1.823.791 1.1 0 1.822-.79.756-.826.756-1.995V10.432q0-.137.138-.137h3.851q.137 0 .137.137l.069 17.192q0 1.926-.928 3.507a6.75 6.75 0 0 1-2.442 2.51q-1.512.928-3.403.928m9.626-.343q-.138 0-.138-.172l.034-23.622q0-.137.138-.137h11.037q.138 0 .137.172v3.85q0 .138-.137.138h-7.049v5.364h7.049q.138 0 .137.137l.035 3.886q0 .137-.138.137h-7.083v6.017h7.083q.138 0 .138.172v3.92q0 .138-.138.138z"/><defs><clipPath id="a"><path fill="#fff" d="M47 3h36.406v40.451H47z"/></clipPath></defs></svg>