<svg xmlns="http://www.w3.org/2000/svg" width="250" height="45" fill="none"><g fill="#fff" clip-path="url(#a)"><path d="M41.832 4.586a4.8 4.8 0 0 1 3.45-1.474h16.706c10.863 0 16.302 13.55 8.621 21.474l-16.731 17.26c-.769.793-2.082.232-2.082-.889V25.754l1.934-1.994c1.536-1.585.448-4.295-1.725-4.295H27.41z"/><path d="M37.373 40.632a4.8 4.8 0 0 1-3.45 1.474H17.216c-10.863 0-16.302-13.55-8.621-21.474L25.328 3.37c.768-.792 2.081-.231 2.081.89v15.202l-1.934 1.995c-1.536 1.585-.448 4.295 1.725 4.295h24.596z"/></g><path fill="#fff" d="M95.22 34.477a6.97 6.97 0 0 1-3.654-.996 8.1 8.1 0 0 1-2.62-2.695q-.96-1.697-.96-3.728V25.36q0-.184.184-.184h4.134q.147 0 .147.184v1.698q0 1.218.813 2.104.81.849 1.956.849 1.144 0 1.956-.886t.812-2.067q0-1.365-1.772-2.362l-1.845-1.033q-1.255-.701-2.362-1.33-2.031-1.179-3.027-2.952-.96-1.809-.96-4.06 0-2.067.997-3.69a7.4 7.4 0 0 1 2.62-2.621 7.04 7.04 0 0 1 3.58-.96q1.957 0 3.58.997a7.04 7.04 0 0 1 2.621 2.62q.997 1.624.997 3.654v3.027q0 .147-.148.147h-4.134q-.147 0-.147-.147l-.037-3.027q0-1.291-.812-2.104-.811-.812-1.92-.812-1.143 0-1.956.886a2.83 2.83 0 0 0-.812 2.03q0 1.218.517 2.03t1.883 1.55q.184.111.7.406.555.26 1.182.628.627.332 1.107.59.517.259.628.333 1.845 1.033 2.915 2.546 1.071 1.478 1.071 3.654 0 2.104-.997 3.802a7.3 7.3 0 0 1-2.62 2.657q-1.625.96-3.617.96m14.465-.37q-.148.001-.148-.184V12.885h-4.798q-.185 0-.185-.184l.037-4.134q0-.148.148-.148h14.025q.185 0 .185.148V12.7q0 .184-.148.184h-4.835l.037 21.038q0 .185-.147.185zm19.032.37a6.9 6.9 0 0 1-3.617-.996 7.84 7.84 0 0 1-2.658-2.732q-.96-1.697-.96-3.728l.074-18.454q0-.148.148-.148h4.134q.147 0 .147.148V27.02q0 1.255.775 2.141.813.849 1.957.849 1.18 0 1.956-.849.812-.885.812-2.14V8.566q0-.148.147-.148h4.134q.148 0 .148.148l.074 18.454q0 2.067-.997 3.765a7.25 7.25 0 0 1-2.62 2.694q-1.624.997-3.654.997Zm11.523-.37q-.184.001-.184-.184l.073-25.356q0-.148.148-.148l6.902-.037q2.03-.036 3.691.96a7.44 7.44 0 0 1 2.694 2.694q.997 1.661.997 3.691V26.32q0 2.14-1.034 3.913A7.85 7.85 0 0 1 150.759 33q-1.734 1.033-3.912 1.07zm4.318-4.539h2.289q1.365 0 2.288-.96.96-.96.96-2.288V15.69q0-1.18-.886-2.03-.85-.885-2.03-.849l-2.584.037zm14.245 4.54q-.185 0-.185-.185l.037-25.356q0-.148.148-.148h4.134q.147 0 .147.148l.037 25.356q0 .185-.148.185zm15.546.369a6.97 6.97 0 0 1-3.654-.996 8.1 8.1 0 0 1-2.62-2.695q-.997-1.697-.997-3.728l.037-11.7q0-2.03.96-3.69a7.6 7.6 0 0 1 2.657-2.658 6.9 6.9 0 0 1 3.617-.997q1.994 0 3.617.997a7.4 7.4 0 0 1 2.584 2.657q.997 1.661.997 3.691l.036 11.7a7.23 7.23 0 0 1-.996 3.728 7.6 7.6 0 0 1-2.621 2.694q-1.623.997-3.617.997m0-4.466q1.107 0 1.92-.886.848-.922.848-2.067l-.036-11.7q0-1.217-.776-2.067-.774-.849-1.956-.849-1.144 0-1.956.85-.812.811-.812 2.066v11.7q0 1.218.812 2.104.812.849 1.956.849m11.342 4.097q-.148 0-.148-.185l.037-25.32q0-.184.185-.184h4.096q.185 0 .185.185l-.037 20.964h7.603q.185 0 .185.185v4.17q0 .185-.185.185zm15.86 0q-.185 0-.185-.185l.037-25.356q0-.148.148-.148h4.134q.147 0 .147.148l.037 25.356q0 .185-.147.185zm9.05 0q-.294 0-.295-.258l-.037-25.136q0-.294.296-.295h3.321l6.238 14.542-.185-14.247q0-.294.333-.295h3.654q.22 0 .221.295l.037 25.172q0 .222-.185.222h-3.248l-6.385-13.583.259 13.288q0 .295-.333.295zm18.09 0q-.147 0-.147-.185l.073-25.32q0-.184.148-.184h4.134q.148 0 .148.185v8.747l5.794-8.784q.11-.148.259-.148h4.244q.148 0 .074.148l-6.385 10.187 7.16 15.206q.074.148-.184.148h-4.503q-.184 0-.222-.148l-4.983-10.851-1.291 2.03v8.784q0 .185-.148.185z"/><defs><clipPath id="a"><path fill="#fff" d="M5 3h68.628v39.216H5z"/></clipPath></defs></svg>