<svg xmlns="http://www.w3.org/2000/svg" width="250" height="45" fill="none"><path fill="#fff" d="M59.332 35V8.74H74.97v3.625H63.682v7.133h9.544v3.626h-9.544v8.211h11.7V35zm25.241.49q-2.311 0-3.273-1.392-.94-1.41-.94-3.9V6.585h4.272v23.87q0 .842.294 1.175.314.333.686.333h.313q.157-.02.412-.078l.529 3.214a5 5 0 0 1-.94.274 6.6 6.6 0 0 1-1.353.118Zm14.757 0q-2.684 0-4.88-1.196-2.175-1.215-3.469-3.507-1.273-2.313-1.273-5.605 0-3.312 1.234-5.605 1.255-2.313 3.293-3.508a8.6 8.6 0 0 1 4.448-1.215q4.096 0 6.076 2.547 1.998 2.529 1.999 6.762 0 .607-.059 1.156a10 10 0 0 1-.098.901h-12.7q.216 2.901 1.862 4.41 1.647 1.49 4.135 1.49a9 9 0 0 0 2.411-.314 9 9 0 0 0 2.214-1l1.451 2.685a12.3 12.3 0 0 1-3.038 1.45 11.6 11.6 0 0 1-3.606.549m-5.468-11.994h9.192q0-2.586-1.059-3.939-1.038-1.372-3.214-1.372-1.881 0-3.273 1.313-1.371 1.314-1.646 3.998M115.674 35l-6.898-19.656h4.37l3.253 10.426.843 2.959q.452 1.49.882 2.94h.157q.391-1.45.823-2.94.45-1.51.862-2.96l3.273-10.425h4.174L120.672 35zm20.362.49q-2.704 0-4.35-1.587-1.647-1.608-1.647-4.194 0-3.156 2.764-5.017t8.936-2.117q0-1.431-.353-2.351-.333-.942-1.136-1.412-.804-.47-2.235-.47a9.7 9.7 0 0 0-2.998.47q-1.43.451-2.704 1.255l-1.607-2.9q1.567-.981 3.645-1.647a14.6 14.6 0 0 1 4.448-.666q3.744 0 5.488 2.136 1.743 2.136 1.744 6.271V35h-3.528l-.352-2.215h-.098a19 19 0 0 1-2.705 1.921q-1.351.784-3.312.784m1.274-3.39q1.274 0 2.293-.588 1.018-.588 2.136-1.666v-4.664q-2.94.078-4.586.705-1.626.608-2.293 1.548-.666.921-.666 1.98 0 1.391.862 2.038t2.254.647m14.502 2.9V15.344h3.508l.333 2.704h.157a14.7 14.7 0 0 1 2.881-2.253q1.567-.941 3.586-.941 3.215 0 4.625 1.999 1.411 1.98 1.411 5.722V35h-4.292V23.143q0-2.528-.725-3.566-.725-1.04-2.489-1.039-1.352 0-2.41.666-1.039.648-2.313 1.921V35zm27.456.49q-2.705 0-4.35-1.587-1.647-1.608-1.647-4.194 0-3.156 2.764-5.017t8.936-2.117q0-1.431-.353-2.351-.333-.942-1.136-1.412-.804-.47-2.234-.47a9.7 9.7 0 0 0-2.999.47q-1.43.451-2.704 1.255l-1.607-2.9q1.568-.981 3.645-1.647a14.6 14.6 0 0 1 4.448-.666q3.744 0 5.488 2.136t1.744 6.271V35h-3.528l-.352-2.215h-.098a19 19 0 0 1-2.705 1.921q-1.352.784-3.312.784m1.274-3.39q1.274 0 2.293-.588 1.018-.588 2.136-1.666v-4.664q-2.94.078-4.586.705-1.626.608-2.293 1.548-.666.921-.666 1.98 0 1.391.862 2.038t2.254.647"/></svg>