<svg xmlns="http://www.w3.org/2000/svg" width="250" height="45" fill="none"><path fill="#fff" d="M62.974 2.133 58.746 1l-3.563 13.297-3.217-12.005-4.228 1.133 3.476 12.97-8.657-8.656-3.095 3.095 9.495 9.495-11.824-3.168L36 21.388l12.92 3.462a8.754 8.754 0 1 1 17.059-.012l11.741 3.146 1.133-4.228-12.971-3.475 11.825-3.169-1.133-4.228-12.97 3.476 8.656-8.657-3.095-3.095-9.363 9.364 3.172-11.84Z"/><path fill="#fff" d="M65.968 24.889A8.74 8.74 0 0 1 63.79 28.9l8.506 8.506 3.095-3.095-9.423-9.423Zm-2.264 4.102a8.75 8.75 0 0 1-3.912 2.313l3.096 11.552 4.227-1.133zm-4.07 2.354a8.8 8.8 0 0 1-2.186.275c-.808 0-1.591-.11-2.334-.315l-3.099 11.562L56.243 44zm-4.671-.082a8.75 8.75 0 0 1-3.843-2.347l-8.527 8.527 3.095 3.095zm-3.913-2.424a8.73 8.73 0 0 1-2.124-3.963l-11.78 3.156 1.133 4.228zm46.567 1.411h12.047V34H92.829v-3.47l12.128-19.787H93.228v-3.67h16.476l-.04 3.55zm30.237 2.234q-3.19 1.995-6.741 2.035-2.952 0-5.186-1.516-3.99-2.752-3.989-9.136 0-4.108 1.835-6.82 2.354-3.511 6.701-3.511h.519q7.26.318 7.26 10.252v1.276h-12.007q.12 1.356.479 2.514 1.236 3.55 4.787 3.55 2.392 0 5.106-1.436zm-7.42-15.717q-.398 0-.797.08-2.713.678-3.311 5.146l7.739-.08q0-1.038-.16-1.955-.678-3.19-3.471-3.191m28.244 14.48.159 3.032q-.957.2-1.715.2-4.07-.04-4.149-4.548v-9.055a6.5 6.5 0 0 0-.159-1.476q-.559-2.553-2.753-2.553-.838 0-1.635.438-2.514 1.437-2.514 6.144V34h-4.148V14.054h3.989l.08 2.753q1.954-3.232 5.465-3.271 1.436 0 2.633.558 3.19 1.556 3.191 6.343v9.215q0 .32.04.598.16 1.197 1.516.997m14.6 1.756q-2.353 1.476-4.548 1.516-.678 0-1.356-.12-3.79-.838-3.79-6.064v-11.17h-2.752v-3.11h2.752V8.668h4.149v5.385h4.388v3.112h-4.388v10.73q.04 3.152 2.274 3.232.918 0 2.154-.678l1.117 2.553Zm6.901.997h-4.148V13.895h3.869l.16 3.47q1.635-3.79 5.305-3.83.519 0 1.077.12l-.439 4.11q-.917-.36-1.755-.36a3.4 3.4 0 0 0-1.835.519q-2.234 1.435-2.234 5.425zm15.797-2.872q.918 0 1.716-.36 2.792-1.355 2.792-6.661 0-1.835-.359-3.271-.958-3.91-4.069-3.91-.998 0-1.875.48-2.673 1.474-2.673 6.621 0 1.915.399 3.43 1.038 3.67 4.069 3.67Zm.16-17.592q2.553 0 4.468 1.117 4.109 2.472 4.109 9.374 0 3.39-1.157 5.864-2.235 4.628-7.739 4.628-2.673 0-4.628-1.237-3.95-2.553-3.949-9.175 0-3.63 1.396-6.263 2.353-4.308 7.5-4.308m27.405 17.791.2 2.992q-.957.2-1.755.2a7 7 0 0 1-.718-.04q-1.916-.28-3.431-2.793l-2.912-4.787L200.377 34h-4.228l6.821-10.212-6.303-9.734h4.628l3.949 6.502 4.149-6.502h4.148l-6.422 9.455 4.468 6.86q.718.96 1.635.998.16 0 .319-.04"/></svg>