<svg width="1112" height="405" viewBox="0 0 1112 405" fill="none" xmlns="http://www.w3.org/2000/svg">
<path d="M183.476 347.18L183.201 347.617L83.8258 404.992L23.6808 367.016C8.93895 357.712 0 341.499 0 324.068V183.612L102.087 123.932V267.794C102.087 285.225 111.026 301.438 125.763 310.747L183.476 347.184V347.18Z" fill="white"/>
<path d="M101.82 57.8121L102.096 57.3744L201.475 0L261.62 37.9759C276.358 47.2803 285.297 63.4977 285.297 80.9243V221.38L183.209 281.06V137.198C183.209 119.767 174.27 103.554 159.533 94.2448L101.82 57.8076V57.8121Z" fill="white"/>
<path d="M360.617 158.745V69.9868H377.354V142.88H414.914V158.749H360.617V158.745Z" fill="white"/>
<path d="M444.295 158.746V91.1823L431.528 100.479L423.348 87.9596L448.265 69.9834H460.54V158.746H444.299H444.295Z" fill="white"/>
<path d="M556.486 160.729C549.955 160.729 543.861 159.551 538.2 157.196C532.54 154.841 527.602 151.556 523.385 147.342C519.17 143.128 515.886 138.211 513.531 132.588C511.176 126.969 509.998 120.896 509.998 114.364C509.998 107.833 511.176 101.763 513.531 96.1401C515.886 90.5211 519.17 85.6044 523.385 81.3866C527.599 77.1723 532.536 73.8876 538.2 71.5326C543.861 69.1775 549.955 68 556.486 68C561.196 68 565.535 68.5578 569.501 69.6733C573.467 70.7889 577.124 72.4209 580.474 74.5694C583.821 76.7178 586.899 79.3621 589.708 82.5022L577.93 93.9056C576.194 91.8398 574.273 90.0631 572.166 88.5757C570.059 87.0883 567.721 85.9315 565.163 85.1051C562.601 84.2788 559.75 83.8656 556.61 83.8656C551.074 83.8656 546.05 85.1258 541.547 87.6461C537.04 90.1699 533.469 93.7025 530.825 98.2439C528.181 102.789 526.859 108.16 526.859 114.361C526.859 120.562 528.181 125.83 530.825 130.416C533.469 135.002 537.043 138.559 541.547 141.076C546.05 143.599 551.07 144.856 556.61 144.856C561.568 144.856 565.968 143.823 569.811 141.757C573.653 139.691 577.062 136.841 580.037 133.205L591.936 144.488C589.04 147.958 585.78 150.916 582.144 153.35C578.508 155.788 574.538 157.626 570.245 158.866C565.948 160.105 561.358 160.725 556.483 160.725L556.486 160.729Z" fill="white"/>
<path d="M632.974 160.728C626.36 160.728 620.513 159.262 615.431 156.328C610.349 153.395 606.383 149.387 603.532 144.305C600.681 139.223 599.256 133.501 599.256 127.134C599.256 120.768 600.681 115.049 603.532 109.964C606.383 104.882 610.349 100.874 615.431 97.9408C620.513 95.0073 626.36 93.5405 632.974 93.5405C639.588 93.5405 645.41 95.0279 650.454 98.0027C655.495 100.978 659.441 104.989 662.291 110.029C665.142 115.07 666.568 120.775 666.568 127.138C666.568 133.501 665.142 139.223 662.291 144.308C659.441 149.39 655.491 153.402 650.454 156.332C645.414 159.265 639.584 160.732 632.974 160.732V160.728ZM632.974 145.606C636.114 145.606 638.985 144.883 641.588 143.437C644.191 141.991 646.298 139.884 647.91 137.116C649.521 134.348 650.327 131.022 650.327 127.134C650.327 123.247 649.521 119.945 647.91 117.218C646.298 114.492 644.191 112.384 641.588 110.897C638.985 109.41 636.114 108.666 632.974 108.666C629.834 108.666 627.041 109.41 624.359 110.897C621.674 112.384 619.525 114.492 617.914 117.218C616.302 119.945 615.497 123.251 615.497 127.134C615.497 131.018 616.302 134.348 617.914 137.116C619.525 139.884 621.674 141.995 624.359 143.437C627.045 144.883 629.916 145.606 632.974 145.606Z" fill="white"/>
<path d="M678.715 158.745V95.5238H693.964V103.952H694.956C696.03 101.969 697.455 100.213 699.232 98.6845C701.009 97.1558 703.095 95.937 705.492 95.028C707.888 94.119 710.45 93.6646 713.176 93.6646C714.829 93.6646 716.317 93.7885 717.639 94.0364C718.961 94.2843 720.118 94.6148 721.109 95.028V111.269C719.374 110.608 717.659 110.05 715.965 109.596C714.271 109.141 712.474 108.914 710.573 108.914C707.351 108.914 704.562 109.72 702.207 111.331C699.852 112.942 698.055 115.132 696.815 117.9C695.576 120.668 694.956 123.788 694.956 127.259V158.745H678.715Z" fill="white"/>
<path d="M730.906 185.522V95.5208H746.156V103.206H747.147C748.221 101.553 749.647 99.983 751.423 98.4956C753.2 97.0082 755.328 95.81 757.807 94.901C760.286 93.9921 763.054 93.5376 766.112 93.5376C771.896 93.5376 777.085 94.963 781.671 97.8139C786.257 100.665 789.893 104.614 792.578 109.655C795.264 114.695 796.607 120.524 796.607 127.135C796.607 133.746 795.264 139.575 792.578 144.615C789.893 149.656 786.257 153.602 781.671 156.453C777.085 159.304 771.896 160.729 766.112 160.729C761.567 160.729 757.659 159.758 754.398 157.816C751.134 155.874 748.714 153.664 747.147 151.185H746.156L747.147 160.109V185.522H730.906ZM763.264 145.731C766.322 145.731 769.152 144.967 771.755 143.438C774.358 141.909 776.465 139.74 778.076 136.93C779.688 134.121 780.493 130.857 780.493 127.138C780.493 123.42 779.688 120.073 778.076 117.346C776.465 114.619 774.358 112.492 771.755 110.963C769.152 109.434 766.322 108.67 763.264 108.67C760.207 108.67 757.5 109.434 754.897 110.963C752.295 112.495 750.187 114.64 748.576 117.408C746.965 120.177 746.159 123.42 746.159 127.138C746.159 130.857 746.965 134.1 748.576 136.869C750.187 139.637 752.295 141.809 754.897 143.376C757.5 144.946 760.289 145.731 763.264 145.731Z" fill="white"/>
<path d="M839.007 160.728C832.393 160.728 826.55 159.262 821.465 156.328C816.383 153.395 812.416 149.387 809.565 144.305C806.714 139.223 805.289 133.501 805.289 127.134C805.289 120.768 806.714 115.049 809.565 109.964C812.416 104.882 816.383 100.874 821.465 97.9408C826.547 95.0073 832.393 93.5405 839.007 93.5405C845.621 93.5405 851.443 95.0279 856.487 98.0027C861.528 100.978 865.474 104.989 868.325 110.029C871.175 115.07 872.601 120.775 872.601 127.138C872.601 133.501 871.175 139.223 868.325 144.308C865.474 149.39 861.525 153.402 856.487 156.332C851.447 159.265 845.618 160.732 839.007 160.732V160.728ZM839.007 145.606C842.147 145.606 845.019 144.883 847.621 143.437C850.224 141.991 852.332 139.884 853.943 137.116C855.554 134.348 856.36 131.022 856.36 127.134C856.36 123.247 855.554 119.945 853.943 117.218C852.332 114.492 850.224 112.384 847.621 110.897C845.019 109.41 842.147 108.666 839.007 108.666C835.867 108.666 833.078 109.41 830.392 110.897C827.707 112.384 825.558 114.492 823.947 117.218C822.336 119.945 821.53 123.251 821.53 127.134C821.53 131.018 822.336 134.348 823.947 137.116C825.558 139.884 827.707 141.995 830.392 143.437C833.078 144.883 835.949 145.606 839.007 145.606Z" fill="white"/>
<path d="M884.748 158.745V95.5238H899.997V103.952H900.989C902.063 101.969 903.489 100.213 905.265 98.6845C907.042 97.1558 909.128 95.937 911.525 95.028C913.921 94.119 916.483 93.6646 919.21 93.6646C920.862 93.6646 922.35 93.7885 923.672 94.0364C924.994 94.2843 926.151 94.6148 927.142 95.028V111.269C925.407 110.608 923.693 110.05 921.999 109.596C920.305 109.141 918.507 108.914 916.607 108.914C913.384 108.914 910.595 109.72 908.24 111.331C905.885 112.942 904.088 115.132 902.848 117.9C901.609 120.668 900.989 123.788 900.989 127.259V158.745H884.748Z" fill="white"/>
<path d="M954.54 160.729C950.078 160.729 946.129 159.841 942.703 158.064C939.274 156.287 936.567 153.788 934.584 150.565C932.601 147.342 931.609 143.624 931.609 139.409C931.609 135.195 932.746 131.27 935.018 128.13C937.29 124.99 940.348 122.552 944.19 120.817C948.033 119.082 952.309 118.214 957.023 118.214C959.584 118.214 961.919 118.359 964.026 118.648C966.133 118.937 968.013 119.288 969.666 119.701C971.318 120.115 972.682 120.569 973.756 121.065V118.338C973.756 114.95 972.475 112.161 969.913 109.971C967.352 107.781 963.84 106.687 959.378 106.687C956.403 106.687 953.531 107.368 950.763 108.732C947.995 110.095 945.698 111.892 943.884 114.124L933.472 105.943C935.538 103.299 937.934 101.047 940.661 99.1876C943.388 97.3283 946.404 95.9236 949.71 94.9733C953.015 94.023 956.486 93.5479 960.121 93.5479C969.789 93.5479 977.144 95.779 982.188 100.241C987.229 104.703 989.749 111.235 989.749 119.829V158.756H973.756V152.311H972.764C971.607 153.798 970.161 155.182 968.426 156.463C966.691 157.744 964.666 158.777 962.352 159.562C960.039 160.347 957.436 160.739 954.544 160.739L954.54 160.729ZM958.383 148.086C961.688 148.086 964.477 147.363 966.749 145.917C969.022 144.471 970.757 142.591 971.955 140.277C973.153 137.963 973.752 135.526 973.752 132.964C971.934 132.055 969.865 131.332 967.555 130.795C965.241 130.258 962.886 129.989 960.49 129.989C955.697 129.989 952.388 130.898 950.574 132.716C948.759 134.534 947.847 136.765 947.847 139.409C947.847 141.888 948.735 143.954 950.512 145.607C952.288 147.26 954.912 148.086 958.383 148.086Z" fill="white"/>
<path d="M1041.2 141.761V157.63C1039.38 158.295 1037.54 158.808 1035.68 159.183C1033.82 159.551 1031.9 159.741 1029.91 159.741C1023.38 159.741 1018.26 157.864 1014.54 154.097C1010.82 150.341 1008.97 145.152 1008.97 138.542V109.41H997.932V95.5276H1008.97V77.6753H1025.2V95.5276H1040.7V109.41H1025.2V135.567C1025.2 138.628 1025.82 140.88 1027.06 142.326C1028.31 143.772 1030.33 144.491 1033.14 144.491C1034.46 144.491 1035.7 144.309 1036.86 143.934C1038.01 143.558 1039.46 142.839 1041.19 141.761H1041.2Z" fill="white"/>
<path d="M1107.64 109.469C1105.24 104.635 1101.74 100.775 1097.11 97.8759C1092.48 94.9837 1086.78 93.5376 1080 93.5376C1073.72 93.5376 1068.14 95.087 1063.26 98.1892C1058.39 101.284 1054.54 105.402 1051.73 110.522C1048.92 115.649 1047.52 121.223 1047.52 127.259C1047.52 133.708 1048.94 139.451 1051.79 144.488C1054.64 149.529 1058.57 153.498 1063.57 156.391C1068.57 159.283 1074.25 160.729 1080.62 160.729C1087.64 160.729 1093.55 159.221 1098.34 156.205C1103.14 153.189 1107.02 149.078 1110 143.872L1096.86 137.423C1095.37 139.984 1093.3 142.116 1090.66 143.81C1088.01 145.504 1084.75 146.351 1080.87 146.351C1077.56 146.351 1074.57 145.59 1071.88 144.058C1069.2 142.525 1067.06 140.298 1065.5 137.361C1064.5 135.491 1063.81 133.363 1063.45 130.981H1110.87C1110.95 130.568 1111.04 129.886 1111.12 128.936C1111.2 127.989 1111.24 126.849 1111.24 125.527C1111.24 119.657 1110.04 114.31 1107.65 109.472L1107.64 109.469ZM1064.08 119.45C1064.42 118.283 1064.84 117.188 1065.37 116.162C1066.86 113.228 1068.9 110.939 1071.51 109.283C1074.11 107.633 1076.98 106.804 1080.12 106.804C1082.51 106.804 1084.64 107.196 1086.51 107.981C1088.37 108.763 1089.96 109.779 1091.28 111.015C1092.6 112.258 1093.63 113.618 1094.38 115.108C1095.12 116.596 1095.53 118.042 1095.61 119.447H1064.08V119.45Z" fill="white"/>
<path d="M387.395 309.49C382.354 309.49 377.62 308.539 373.199 306.639C368.778 304.738 364.936 301.908 361.672 298.148C358.408 294.388 355.95 289.782 354.297 284.324L370.042 278.127C371.199 282.51 373.223 286.184 376.116 289.158C379.008 292.133 382.809 293.621 387.519 293.621C389.833 293.621 392.022 293.228 394.088 292.443C396.154 291.658 397.828 290.481 399.108 288.911C400.389 287.341 401.03 285.399 401.03 283.085C401.03 280.771 400.492 278.933 399.418 277.321C398.344 275.71 396.547 274.181 394.026 272.735C391.503 271.289 388.094 269.781 383.8 268.211L378.347 266.228C375.95 265.319 373.53 264.182 371.096 262.819C368.658 261.456 366.427 259.762 364.402 257.737C362.374 255.713 360.746 253.378 359.506 250.734C358.267 248.09 357.647 245.073 357.647 241.686C357.647 237.058 358.845 232.864 361.242 229.101C363.638 225.341 366.985 222.346 371.281 220.115C375.578 217.884 380.578 216.768 386.283 216.768C391.988 216.768 397.149 217.78 401.036 219.805C404.92 221.829 407.957 224.288 410.147 227.18C412.337 230.076 413.886 232.882 414.795 235.609L400.041 241.806C399.546 240.153 398.719 238.583 397.562 237.096C396.406 235.609 394.918 234.41 393.1 233.501C391.282 232.592 389.089 232.138 386.531 232.138C384.131 232.138 381.986 232.53 380.085 233.315C378.185 234.1 376.694 235.175 375.623 236.538C374.549 237.902 374.012 239.492 374.012 241.31C374.012 243.954 375.148 246.227 377.42 248.127C379.693 250.028 383.349 251.805 388.39 253.457L393.968 255.317C397.108 256.391 400.103 257.651 402.954 259.097C405.805 260.543 408.346 262.34 410.577 264.489C412.808 266.637 414.564 269.199 415.845 272.174C417.126 275.149 417.766 278.702 417.766 282.834C417.766 287.378 416.857 291.348 415.039 294.733C413.221 298.124 410.825 300.892 407.85 303.037C404.875 305.186 401.591 306.797 397.996 307.871C394.402 308.946 390.869 309.483 387.398 309.483L387.395 309.49Z" fill="white"/>
<path d="M465.989 290.525V306.394C464.167 307.059 462.332 307.568 460.476 307.944C458.617 308.319 456.692 308.501 454.709 308.501C448.181 308.501 443.054 306.625 439.336 302.865C435.621 299.105 433.762 293.92 433.762 287.306V258.174H422.727V244.292H433.762V226.439H449.999V244.292H465.496V258.174H449.999V284.335C449.999 287.392 450.622 289.644 451.858 291.09C453.101 292.536 455.126 293.262 457.932 293.262C459.254 293.262 460.494 293.076 461.65 292.701C462.807 292.333 464.253 291.606 465.989 290.535V290.525Z" fill="white"/>
<path d="M478.879 307.506V244.285H494.128V252.713H495.12C496.194 250.73 497.62 248.974 499.396 247.445C501.173 245.917 503.259 244.698 505.656 243.789C508.052 242.88 510.614 242.425 513.341 242.425C514.993 242.425 516.481 242.549 517.803 242.797C519.125 243.045 520.282 243.376 521.273 243.789V260.03C519.538 259.369 517.823 258.811 516.129 258.356C514.435 257.902 512.638 257.675 510.738 257.675C507.515 257.675 504.726 258.48 502.371 260.092C500.016 261.703 498.219 263.893 496.979 266.661C495.74 269.429 495.12 272.549 495.12 276.019V307.506H478.879Z" fill="white"/>
<path d="M548.675 309.49C544.213 309.49 540.264 308.601 536.838 306.825C533.408 305.048 530.702 302.548 528.719 299.326C526.736 296.103 525.744 292.384 525.744 288.17C525.744 283.956 526.88 280.031 529.153 276.891C531.425 273.751 534.483 271.313 538.325 269.578C542.168 267.842 546.444 266.975 551.157 266.975C553.719 266.975 556.053 267.119 558.161 267.408C560.268 267.698 562.148 268.049 563.8 268.462C565.453 268.875 566.816 269.33 567.891 269.826V267.099C567.891 263.711 566.61 260.922 564.048 258.732C561.487 256.542 557.975 255.447 553.512 255.447C550.538 255.447 547.666 256.129 544.898 257.492C542.13 258.856 539.833 260.653 538.019 262.884L527.607 254.704C529.673 252.059 532.069 249.808 534.796 247.948C537.523 246.089 540.539 244.684 543.844 243.734C547.15 242.784 550.62 242.309 554.256 242.309C563.924 242.309 571.279 244.54 576.323 249.002C581.363 253.464 583.884 259.996 583.884 268.589V307.517H567.891V301.071H566.899C565.742 302.559 564.296 303.943 562.561 305.224C560.826 306.504 558.801 307.537 556.487 308.322C554.174 309.107 551.571 309.5 548.678 309.5L548.675 309.49ZM552.517 296.847C555.823 296.847 558.612 296.124 560.884 294.678C563.156 293.231 564.892 291.352 566.09 289.038C567.288 286.724 567.887 284.286 567.887 281.725C566.069 280.816 564 280.093 561.69 279.556C559.376 279.019 557.021 278.75 554.625 278.75C549.832 278.75 546.523 279.659 544.709 281.477C542.891 283.295 541.982 285.526 541.982 288.17C541.982 290.649 542.87 292.715 544.647 294.368C546.423 296.02 549.047 296.847 552.517 296.847Z" fill="white"/>
<path d="M635.326 290.525V306.394C633.512 307.059 631.669 307.568 629.807 307.944C627.951 308.319 626.03 308.501 624.043 308.501C617.515 308.501 612.388 306.625 608.67 302.865C604.955 299.105 603.096 293.92 603.096 287.306V258.174H592.061V244.292H603.096V226.439H619.333V244.292H634.83V258.174H619.333V284.335C619.333 287.392 619.956 289.644 621.192 291.09C622.435 292.536 624.46 293.262 627.266 293.262C628.588 293.262 629.827 293.076 630.984 292.701C632.141 292.333 633.587 291.606 635.323 290.535L635.326 290.525Z" fill="white"/>
<path d="M701.771 258.229C699.371 253.395 695.862 249.536 691.235 246.643C686.604 243.751 680.902 242.302 674.126 242.302C667.846 242.302 662.269 243.855 657.39 246.953C652.514 250.056 648.672 254.167 645.859 259.286C643.053 264.413 641.645 269.991 641.645 276.023C641.645 282.472 643.07 288.215 645.921 293.256C648.772 298.296 652.697 302.263 657.7 305.155C662.695 308.047 668.38 309.493 674.746 309.493C681.767 309.493 687.678 307.985 692.471 304.969C697.264 301.956 701.151 297.842 704.126 292.636L690.987 286.194C689.5 288.756 687.43 290.883 684.79 292.574C682.145 294.268 678.881 295.118 674.994 295.118C671.689 295.118 668.693 294.354 666.004 292.822C663.322 291.297 661.191 289.062 659.624 286.128C658.622 284.259 657.941 282.131 657.582 279.742H704.993C705.08 279.328 705.159 278.647 705.241 277.693C705.321 276.746 705.365 275.606 705.365 274.284C705.365 268.421 704.164 263.067 701.771 258.229ZM658.219 268.207C658.553 267.04 658.98 265.952 659.5 264.923C660.988 261.989 663.033 259.693 665.636 258.043C668.239 256.387 671.11 255.561 674.25 255.561C676.65 255.561 678.775 255.957 680.637 256.739C682.496 257.527 684.087 258.536 685.413 259.779C686.731 261.015 687.768 262.382 688.508 263.869C689.252 265.357 689.665 266.803 689.751 268.207H658.219Z" fill="white"/>
<path d="M746.65 336.266C740.948 336.266 736.007 335.378 731.834 333.601C727.661 331.824 724.253 329.528 721.608 326.722C718.964 323.912 717.101 320.975 716.031 317.921L731.28 311.724C732.602 314.781 734.606 317.24 737.291 319.099C739.977 320.958 743.096 321.888 746.65 321.888C751.69 321.888 755.739 320.338 758.8 317.24C761.858 314.141 763.386 309.654 763.386 303.787V298.829H762.395C760.412 301.639 757.809 303.787 754.586 305.275C751.363 306.762 747.686 307.506 743.554 307.506C738.428 307.506 733.614 306.184 729.111 303.54C724.604 300.895 720.968 297.135 718.203 292.257C715.435 287.381 714.051 281.597 714.051 274.9C714.051 268.203 715.435 262.316 718.203 257.482C720.971 252.648 724.607 248.909 729.111 246.264C733.614 243.62 738.428 242.298 743.554 242.298C747.686 242.298 751.363 243.021 754.586 244.467C757.809 245.913 760.412 248.082 762.395 250.974H763.386V244.281H779.008V303.164C779.008 309.94 777.685 315.811 775.041 320.769C772.397 325.727 768.658 329.548 763.824 332.238C758.99 334.923 753.264 336.266 746.653 336.266H746.65ZM746.898 292.756C749.79 292.756 752.496 292.074 755.016 290.711C757.537 289.347 759.561 287.323 761.09 284.637C762.619 281.952 763.383 278.708 763.383 274.907C763.383 271.106 762.619 267.635 761.09 264.991C759.558 262.347 757.537 260.364 755.016 259.041C752.493 257.719 749.79 257.058 746.898 257.058C744.005 257.058 741.275 257.719 738.717 259.041C736.155 260.364 734.11 262.347 732.581 264.991C731.053 267.635 730.288 270.941 730.288 274.907C730.288 278.873 731.053 282.079 732.581 284.761C734.11 287.447 736.155 289.454 738.717 290.773C741.278 292.095 744.005 292.756 746.898 292.756Z" fill="white"/>
<path d="M802.807 237.34C799.915 237.34 797.433 236.307 795.37 234.241C793.304 232.176 792.271 229.697 792.271 226.804C792.271 223.912 793.304 221.454 795.37 219.429C797.436 217.405 799.915 216.393 802.807 216.393C805.699 216.393 808.158 217.405 810.182 219.429C812.207 221.457 813.219 223.912 813.219 226.804C813.219 229.697 812.207 232.179 810.182 234.241C808.154 236.307 805.699 237.34 802.807 237.34ZM794.626 307.506V244.285H810.867V307.506H794.626Z" fill="white"/>
<path d="M883.138 258.229C880.738 253.395 877.23 249.536 872.602 246.643C867.975 243.751 862.269 242.302 855.497 242.302C849.213 242.302 843.636 243.855 838.76 246.953C833.885 250.056 830.039 254.167 827.229 259.286C824.416 264.413 823.012 269.991 823.012 276.023C823.012 282.472 824.441 288.215 827.291 293.256C830.139 298.296 834.064 302.263 839.067 305.155C844.069 308.047 849.75 309.493 856.113 309.493C863.134 309.493 869.045 307.985 873.842 304.969C878.634 301.956 882.518 297.842 885.496 292.636L872.358 286.194C870.867 288.756 868.801 290.883 866.16 292.574C863.512 294.268 860.245 295.118 856.365 295.118C853.059 295.118 850.06 294.354 847.375 292.822C844.686 291.297 842.561 289.062 840.988 286.128C839.986 284.259 839.304 282.131 838.946 279.742H886.364C886.443 279.328 886.529 278.647 886.608 277.693C886.695 276.746 886.732 275.606 886.732 274.284C886.732 268.421 885.534 263.067 883.138 258.229ZM839.583 268.207C839.917 267.04 840.344 265.952 840.864 264.923C842.355 261.989 844.397 259.693 846.999 258.043C849.602 256.387 852.474 255.561 855.614 255.561C858.014 255.561 860.138 255.957 862.001 256.739C863.86 257.527 865.454 258.536 866.776 259.779C868.099 261.015 869.131 262.382 869.872 263.869C870.615 265.357 871.029 266.803 871.115 268.207H839.583Z" fill="white"/>
<path d="M922.931 309.49C917.477 309.49 912.829 308.705 908.983 307.135C905.141 305.564 902.021 303.499 899.625 300.937C897.225 298.375 895.452 295.566 894.295 292.508L908.797 286.187C910.202 289.162 912.102 291.414 914.499 292.942C916.895 294.471 919.705 295.235 922.927 295.235C925.572 295.235 927.968 294.801 930.116 293.934C932.265 293.066 933.339 291.475 933.339 289.162C933.339 287.509 932.781 286.208 931.666 285.257C930.55 284.307 929.166 283.563 927.514 283.026C925.861 282.489 924.167 282.055 922.432 281.725L914.995 280.113C911.937 279.452 909.045 278.275 906.318 276.581C903.591 274.887 901.377 272.738 899.687 270.135C897.993 267.532 897.146 264.537 897.146 261.149C897.146 257.348 898.241 254.043 900.43 251.233C902.62 248.423 905.595 246.234 909.355 244.664C913.115 243.094 917.267 242.309 921.815 242.309C926.03 242.309 929.831 242.804 933.219 243.796C936.607 244.788 939.54 246.296 942.019 248.32C944.498 250.348 946.481 252.927 947.969 256.067L934.086 262.141C932.764 259.662 931.05 257.926 928.942 256.935C926.835 255.943 924.583 255.447 922.187 255.447C919.378 255.447 917.146 255.984 915.494 257.059C913.841 258.133 913.015 259.414 913.015 260.901C913.015 262.471 913.841 263.835 915.494 264.991C917.146 266.148 919.13 267.016 921.443 267.594L930.74 269.826C937.02 271.313 941.751 273.709 944.935 277.015C948.117 280.32 949.708 284.286 949.708 288.914C949.708 293.046 948.509 296.661 946.113 299.76C943.717 302.858 940.49 305.258 936.445 306.949C932.396 308.643 927.892 309.49 922.931 309.49Z" fill="white"/>
</svg>
