<svg width="1548" height="315" viewBox="0 0 1548 315" fill="none" xmlns="http://www.w3.org/2000/svg">
<path d="M179.052 248.656H118.216V309.493H179.052V248.656Z" fill="white"/>
<path d="M543.401 97.243V309.474H483.88L483.184 275.779C476.992 287.286 468.013 296.626 456.248 303.772C444.458 310.945 430.139 314.505 413.291 314.505C395.618 314.505 380.654 310.867 368.425 303.566C356.222 296.264 346.934 285.532 340.639 271.342C334.318 257.177 331.17 239.84 331.17 219.329V97.1914H394.354V213.008C394.354 228.72 397.579 240.743 404.029 249.025C410.479 257.306 420.877 261.434 435.196 261.434C443.89 261.434 451.682 259.474 458.57 255.526C465.433 251.605 470.774 245.851 474.566 238.266C478.359 230.681 480.242 221.419 480.242 210.479V97.1914H543.427L543.401 97.243Z" fill="white"/>
<path d="M236.431 0H297.242V309.497H236.431V198.428L148.608 153.897L60.8365 198.428V309.497H0V0H60.8365V130.213L81.3991 119.79L148.608 85.6819L215.843 119.79L236.431 130.213V0Z" fill="white"/>
<path d="M706.583 314.554C696.186 314.554 686.846 313.29 678.59 310.761C670.308 308.233 663.007 304.647 656.686 300.029C650.365 295.41 644.973 290.121 640.484 284.239L639.761 309.497H577.325V0H640.484V125.027C647.217 115.481 655.912 107.612 666.593 101.446C677.249 95.2795 690.458 92.1835 706.171 92.1835C725.546 92.1835 742.884 97.0339 758.183 106.709C773.483 116.384 785.635 129.594 794.613 146.286C803.591 163.005 808.081 182.148 808.081 203.769C808.081 225.389 803.591 243.784 794.613 260.632C785.635 277.479 773.56 290.689 758.39 300.209C743.219 309.755 725.959 314.528 706.583 314.528V314.554ZM691 259.368C701.114 259.368 710.17 256.994 718.168 252.221C726.166 247.448 732.409 240.921 736.898 232.639C741.388 224.357 743.632 214.734 743.632 203.794C743.632 192.855 741.388 183.103 736.898 174.537C732.409 165.972 726.166 159.315 718.168 154.542C710.17 149.769 701.114 147.396 691 147.396C680.886 147.396 671.418 149.847 663.42 154.774C655.422 159.702 649.178 166.281 644.689 174.563C640.2 182.845 637.955 192.597 637.955 203.82C637.955 215.043 640.2 224.099 644.689 232.665C649.178 241.23 655.422 247.835 663.42 252.453C671.418 257.097 680.603 259.394 691 259.394V259.368Z" fill="white"/>
<path d="M1148.28 97.2422L1085.95 309.499H1020.26L978.31 158.904L936.024 309.499H870.75L808.004 97.2422H870.337L904.393 243.58L943.609 97.2422H1013.09L1052.28 243.477L1085.95 97.2422H1148.28Z" fill="white"/>
<path d="M1352.67 143.784C1343.54 127.942 1330.97 115.352 1314.98 106.09C1298.98 96.8276 1280.3 92.1836 1258.96 92.1836C1237.63 92.1836 1217.84 97.1114 1201.27 106.915C1184.71 116.745 1171.79 130.213 1162.52 147.344C1153.26 164.475 1148.62 183.98 1148.62 205.884C1148.62 227.789 1153.31 246.107 1162.73 262.541C1172.15 278.976 1185.12 291.747 1201.69 300.854C1218.25 309.962 1237.5 314.528 1259.38 314.528C1275.94 314.528 1291.08 311.381 1304.86 305.06C1318.61 298.739 1330.28 290.173 1339.82 279.389C1349.37 268.578 1356.1 256.427 1360.05 242.959H1295.6C1292.22 248.867 1287.52 253.692 1281.49 257.484C1275.45 261.277 1267.81 263.186 1258.53 263.186C1248.7 263.186 1240.21 261.071 1233.03 256.865C1225.89 252.66 1220.39 246.752 1216.6 239.166C1213.58 233.155 1211.78 226.395 1211.16 218.965H1365.05C1365.62 215.301 1365.96 211.741 1366.11 208.232C1366.24 204.723 1366.32 201.576 1366.32 198.764C1366.32 177.994 1361.75 159.676 1352.64 143.809L1352.67 143.784ZM1212.68 182.303C1213.76 177.143 1215.36 172.499 1217.48 168.397C1221.84 159.986 1227.64 153.665 1234.94 149.46C1242.25 145.254 1250.37 143.139 1259.38 143.139C1271.17 143.139 1281.07 146.725 1289.07 153.871C1297.07 161.018 1301.35 170.512 1301.92 182.303H1212.68Z" fill="white"/>
<path d="M1392.84 309.497V0H1456V309.497H1392.84Z" fill="white"/>
<path d="M1484.84 309.497V0H1548V309.497H1484.84Z" fill="white"/>
</svg>
